<svg id="Layer_1_1_" enable-background="new 0 0 64 64" height="512" viewBox="0 0 64 64" width="512" xmlns="http://www.w3.org/2000/svg"><path d="m45 36h-3.97v-.021c7.394-.336 14.97-4.537 14.97-11.979 0-.256-.013-.508-.029-.759.019-.078.029-.159.029-.241 0-15.212-10.51-16.999-16.79-18.066-1.571-.268-2.929-.498-3.838-.862-3.538-1.415-9.599-.127-13.372.935-.001-.003 0-.005 0-.007 0-1.654-1.346-3-3-3-1.353 0-2.499.899-2.872 2.131l-4.259.71c-.946.158-1.772.72-2.266 1.542-.228.381-.645.617-1.088.617h-2.515c-.552 0-1 .448-1 1v3c0 .379.214.725.553.895l6 3c.138.069.292.105.447.105h4.788c1.081.491 6.672 3.156 8.318 6.447 1.307 2.614 1.712 7.182 1.837 9.671.03.616-.385 1.15-.987 1.271l-.21.042c-1.834.367-3.231 1.8-3.624 3.569h-2.122c-.552 0-1 .448-1 1h-17v2h17v4c0 .315.148.611.4.8l3.886 2.915 2.914 3.885c.258.344.708.485 1.116.349l1.89-.63 1.808 10.846c.065.389.353.704.734.803.084.021.168.032.252.032.299 0 .588-.135.781-.375l4-5c.096-.119.162-.258.195-.408l1.528-6.877 1.696 2.26c.216.288.571.438.931.391.358-.047.663-.284.797-.62l1.961-4.903 1.942-2.914c.11-.163.169-.357.169-.554v-4h16v-2h-16c0-.552-.448-1-1-1zm-18.862-1.608.21-.042c1.583-.316 2.672-1.718 2.592-3.332-.133-2.646-.575-7.524-2.045-10.465-2.139-4.278-9.201-7.343-9.5-7.472-.125-.054-.26-.081-.395-.081h-4.764l-5.236-2.618v-1.382h1.515c1.142 0 2.216-.608 2.803-1.587.191-.319.512-.537.88-.599l4.966-.828c.482-.08.836-.497.836-.986 0-.551.449-1 1-1s1 .449 1 1c0 .273-.111.52-.289.701-.405.132-.707.237-.884.299h-.827v2h1c.62 0 1.197-.189 1.676-.513 3.66-1.172 10.613-2.897 13.952-1.558 1.108.443 2.563.69 4.247.977 6.33 1.076 14.979 2.547 15.123 15.759-.041.124-.057.256-.047.39.025.312.049.626.049.945 0 6.412-7.085 9.938-13.768 10l-.257.006c-.547.013-.967.464-.96 1.012 0 .054.005.107.015.158v.824h-3.884c.254-1.147.935-2.165 1.935-2.832l.504-.336c.241-.161.4-.417.437-.704s-.052-.576-.244-.792c-.028-.031-2.796-3.182-2.777-6.33l-2-.012c-.017 2.805 1.614 5.459 2.584 6.788-1.343 1.041-2.215 2.552-2.47 4.218h-8.911c.33-.806 1.041-1.429 1.934-1.608zm17.862 8.305-1.832 2.748c-.039.058-.071.119-.097.183l-1.339 3.348-1.732-2.309v-2.667h-2v2.891l-1.926 8.666-2.456 3.07-1.618-9.71v-5.917h-2v5.279l-1.632.544-2.368-3.156v-5.667h-2v4l-2-1.5v-4.5h15v2h2v-2h6z"/></svg>