<svg id="Layer_1_1_" enable-background="new 0 0 64 64" height="512" viewBox="0 0 64 64" width="512" xmlns="http://www.w3.org/2000/svg"><path d="m30.651 47.397c7.294 0 14.353-2.702 19.781-7.564.392.721 1.028 1.307 1.831 1.639 1.296.536 2.698.269 3.662-.695.714-.713 1.075-1.676 1.075-2.863 0-3.539-2.106-4.56-3.029-4.786 2.101.42 3.926 1.814 4.883 3.73.724 1.447.966 3.056.7 4.652l-.54 3.239 1.973.329.54-3.24c.336-2.016.03-4.047-.884-5.875-1.231-2.463-3.579-4.256-6.279-4.796-.582-.116-1.181.032-1.64.409-.46.376-.724.933-.724 1.527 0 .875.565 1.634 1.407 1.89 1.042.316 1.593 1.326 1.593 2.921 0 .646-.16 1.121-.488 1.449-.56.56-1.226.368-1.482.261-.475-.197-1.03-.707-1.03-1.496v-.214c0-.405-.245-.771-.619-.925-.375-.155-.806-.067-1.092.221-1.277 1.289-2.672 2.433-4.154 3.435 1.222-2.701 1.865-5.636 1.865-8.645 0-11.58-9.421-21-21-21-4.301 0-8.489 1.339-12 3.792v-11.792c0-.552-.447-1-1-1h-8c-.553 0-1 .448-1 1v41.149l-2.95-.148-.1 1.997 27.227 1.361c.492.026.983.038 1.474.038zm15.242-17.397h-10.368c-.827 0-1.5-.673-1.5-1.5s.673-1.5 1.5-1.5h9.785c.267.974.474 1.971.583 3zm-5.075-11h-10.793c-2.757 0-5-2.243-5-5 0-.303.036-.602.09-.898.625-.063 1.253-.102 1.885-.102 5.446 0 10.351 2.316 13.818 6zm-17.75-5.569c-.015.19-.043.378-.043.569 0 3.86 3.141 7 7 7h12.438c.88 1.234 1.616 2.573 2.184 4h-9.122c-1.93 0-3.5 1.57-3.5 3.5s1.57 3.5 3.5 3.5h10.475c0 3.734-1.082 7.347-3.129 10.449l.08.053c-4.196 2.085-8.898 3.101-13.675 2.861l-9.186-.459c-.036-.131-.065-.264-.065-.404 0-.827.673-1.5 1.5-1.5h13c2.481 0 4.5-2.019 4.5-4.5s-2.019-4.5-4.5-4.5h-19.525v-4h2.025c1.654 0 3-1.346 3-3s-1.346-3-3-3h-2.025v-6.695c2.359-1.928 5.127-3.247 8.068-3.874zm-8.068 12.569h2.025c.552 0 1 .449 1 1s-.448 1-1 1h-2.025zm0 10h19.525c1.379 0 2.5 1.122 2.5 2.5s-1.121 2.5-2.5 2.5h-13c-1.93 0-3.5 1.57-3.5 3.5 0 .102.015.201.024.301l-3.049-.152zm-8 4h2v-2h-2v-4h4v-2h-4v-4h2v-2h-2v-4h4v-2h-4v-4h2v-2h-2v-4h4v-2h-4v-4h6v40.549l-6-.3z"/><path d="m60.934 21.906c-2.142-1.252-6.288 1.438-7.508 2.292-.266.187-.425.491-.426.816s.156.631.422.819c.589.418 3.191 2.167 5.45 2.167.493 0 .97-.083 1.406-.283.714-.326 1.604-1.097 1.781-2.916.171-1.749-.517-2.54-1.125-2.895zm-.865 2.7c-.104 1.054-.493 1.232-.621 1.291-.757.345-2.263-.192-3.565-.893 1.7-.985 3.5-1.688 4.043-1.371.112.066.2.392.143.973z"/><path d="m52.167 12.111c-2.064.688-2.745 4.38-2.904 5.495-.044.312.061.626.283.849.188.189.443.293.707.293.047 0 .094-.003.142-.01 1.115-.159 4.808-.839 5.495-2.904.213-.638.224-1.64-.93-2.793-1.155-1.155-2.157-1.142-2.793-.93zm.677 1.89c.131 0 .383.134.702.453.36.36.483.634.446.746-.144.432-1.23.925-2.45 1.257.33-1.219.823-2.305 1.258-2.45.013-.003.027-.006.044-.006z"/><path d="m53.424 49.2c-2.508 0-3.795 1.081-4.931 2.034-1.042.875-1.865 1.566-3.646 1.566-1.778 0-2.601-.691-3.642-1.565-1.135-.954-2.422-2.034-4.928-2.034-2.508 0-3.795 1.081-4.931 2.034-1.041.875-1.864 1.565-3.643 1.565s-2.601-.691-3.642-1.565c-1.136-.954-2.422-2.034-4.929-2.034-2.506 0-3.792 1.081-4.927 2.034-1.041.875-1.862 1.565-3.641 1.565-1.777 0-2.599-.691-3.64-1.565-1.131-.954-2.417-2.035-4.924-2.035v2c1.778 0 2.6.691 3.641 1.565 1.135.954 2.421 2.034 4.927 2.034 2.507 0 3.793-1.081 4.928-2.034 1.041-.875 1.862-1.565 3.64-1.565s2.601.691 3.642 1.565c1.136.954 2.422 2.034 4.929 2.034s3.794-1.081 4.929-2.034c1.042-.875 1.865-1.566 3.645-1.566 1.777 0 2.6.691 3.641 1.565 1.136.954 2.422 2.034 4.929 2.034 2.508 0 3.795-1.081 4.931-2.034 1.042-.875 1.865-1.566 3.646-1.566s2.604.691 3.646 1.566c1.131.955 2.418 2.036 4.926 2.036v-2c-1.78 0-2.604-.691-3.646-1.566-1.135-.953-2.422-2.034-4.93-2.034z"/><path d="m53.424 56.2c-2.508 0-3.795 1.081-4.931 2.034-1.042.875-1.865 1.566-3.646 1.566-1.778 0-2.601-.691-3.642-1.565-1.135-.954-2.422-2.034-4.928-2.034-2.508 0-3.795 1.081-4.931 2.034-1.041.875-1.864 1.565-3.643 1.565s-2.601-.691-3.642-1.565c-1.136-.954-2.422-2.034-4.929-2.034-2.506 0-3.792 1.081-4.927 2.034-1.041.875-1.862 1.565-3.641 1.565-1.777 0-2.599-.691-3.64-1.565-1.131-.954-2.417-2.035-4.924-2.035v2c1.778 0 2.6.691 3.641 1.565 1.135.954 2.421 2.034 4.927 2.034 2.507 0 3.793-1.081 4.928-2.034 1.041-.875 1.862-1.565 3.64-1.565s2.601.691 3.642 1.565c1.136.954 2.422 2.034 4.929 2.034s3.794-1.081 4.929-2.034c1.042-.875 1.865-1.566 3.645-1.566 1.777 0 2.6.691 3.641 1.565 1.136.954 2.422 2.034 4.929 2.034 2.508 0 3.795-1.081 4.931-2.034 1.042-.875 1.865-1.566 3.646-1.566s2.604.691 3.646 1.566c1.131.955 2.418 2.036 4.926 2.036v-2c-1.78 0-2.604-.691-3.646-1.566-1.135-.953-2.422-2.034-4.93-2.034z"/></svg>