<?xml version="1.0" encoding="iso-8859-1"?>
<!-- Generator: Adobe Illustrator 19.0.0, SVG Export Plug-In . SVG Version: 6.00 Build 0)  -->
<svg version="1.1" id="Layer_1" xmlns="http://www.w3.org/2000/svg" xmlns:xlink="http://www.w3.org/1999/xlink" x="0px" y="0px"
	 viewBox="0 0 512 512" style="enable-background:new 0 0 512 512;" xml:space="preserve">
<g>
	<g>
		<g>
			<path d="M372.941,31.659c2.483-2.441,7.714-6.059,11.059-6.059c6.869,0,8.431,4.693,8.533,8.533v0.043v0.034v0.017v0.017v0.009
				c0,0,0,0,0,0.009c0.068,4.651,3.866,8.405,8.533,8.405c4.685,0,8.491-3.772,8.533-8.448c0.102-3.934,1.672-8.619,8.533-8.619
				c3.345,0,8.576,3.618,11.034,6.033c3.337,3.337,8.73,3.337,12.066,0s3.337-8.73,0-12.066c-1.126-1.126-11.366-11.034-23.1-11.034
				c-7.475,0-13.056,2.423-17.067,5.999c-4.011-3.576-9.591-5.999-17.067-5.999c-11.733,0-21.973,9.907-23.1,11.034
				c-3.328,3.319-3.319,8.695-0.009,12.032C364.194,34.935,369.596,34.953,372.941,31.659z"/>
			<path d="M422.519,136.917c-1.442-0.256-2.91-0.384-4.386-0.384c-14.114,0-25.6,11.486-25.6,25.6s11.486,25.6,25.6,25.6H486.4
				c14.114,0,25.6-11.486,25.6-25.6s-11.486-25.6-25.6-25.6c-1.476,0-2.944,0.128-4.386,0.384
				c-5.888-10.607-17.092-17.451-29.747-17.451C439.612,119.467,428.407,126.31,422.519,136.917z M435.695,149.743
				c1.801-7.774,8.619-13.21,16.572-13.21c7.953,0,14.771,5.436,16.572,13.21c0.623,2.705,2.526,4.941,5.103,5.982
				c2.569,1.041,5.495,0.777,7.834-0.734c5.555-3.576,13.158,0.802,13.158,7.142c0,4.702-3.831,8.533-8.533,8.533h-68.267
				c-4.702,0-8.533-3.831-8.533-8.533c0-4.702,3.831-8.533,8.533-8.533c1.638,0,3.191,0.469,4.625,1.391
				c2.338,1.51,5.257,1.775,7.834,0.734C433.169,154.684,435.072,152.448,435.695,149.743z"/>
			<path d="M162.133,102.4H204.8c4.71,0,8.533-3.823,8.533-8.533c0-4.71-3.823-8.533-8.533-8.533h-42.667
				c-4.702,0-8.533-3.831-8.533-8.533c0-6.34,7.612-10.726,13.158-7.142c2.338,1.51,5.257,1.783,7.834,0.734
				c2.577-1.041,4.48-3.277,5.103-5.982c1.801-7.774,8.619-13.21,16.572-13.21c3.106,0,6.135,0.845,8.772,2.449
				c4.028,2.432,9.276,1.161,11.725-2.867c2.441-4.036,1.161-9.284-2.867-11.725c-5.308-3.217-11.401-4.924-17.63-4.924
				c-12.655,0-23.859,6.844-29.747,17.451c-1.442-0.256-2.91-0.384-4.386-0.384c-14.114,0-25.6,11.486-25.6,25.6
				S148.019,102.4,162.133,102.4z"/>
			<path d="M503.467,494.933H366.933c-4.71,0-8.533,3.823-8.533,8.533s3.823,8.533,8.533,8.533h136.533
				c4.71,0,8.533-3.823,8.533-8.533S508.177,494.933,503.467,494.933z"/>
			<path d="M332.8,494.933h-17.067c-4.71,0-8.533,3.823-8.533,8.533s3.823,8.533,8.533,8.533H332.8c4.71,0,8.533-3.823,8.533-8.533
				S337.51,494.933,332.8,494.933z"/>
			<path d="M128,494.933H8.533c-4.71,0-8.533,3.823-8.533,8.533S3.823,512,8.533,512H128c4.71,0,8.533-3.823,8.533-8.533
				S132.71,494.933,128,494.933z"/>
			<path d="M100.83,320c4.471,0,8.883-1.186,12.424-3.234L256,243.166l142.396,73.412c3.891,2.236,8.311,3.422,12.783,3.422
				c9.122,0,17.63-4.898,22.187-12.8c7.049-12.228,2.85-27.913-9.02-34.765l-135.117-86.818L281.6,25.6
				C281.6,11.486,270.114,0,256,0s-25.6,11.486-25.591,25.199l-7.637,160.418L88.004,272.23c-12.22,7.057-16.418,22.741-9.361,34.97
				C83.2,315.093,91.708,320,100.83,320z M96.887,286.797l138.812-89.199c2.321-1.493,3.772-4.019,3.908-6.776L247.467,25.6
				c0-4.702,3.831-8.533,8.533-8.533c4.702,0,8.533,3.831,8.542,8.934l7.851,164.821c0.137,2.756,1.587,5.282,3.908,6.776
				l139.162,89.404c4.07,2.355,5.47,7.586,3.123,11.665c-2.278,3.934-6.972,5.794-12.015,2.935L259.908,225.98
				c-1.22-0.631-2.569-0.947-3.908-0.947s-2.688,0.316-3.908,0.947l-147.012,75.81c-3.985,2.304-9.378,0.811-11.657-3.123
				C91.068,294.588,92.467,289.357,96.887,286.797z"/>
			<path d="M256.256,213.333c4.719,0,8.533-3.823,8.533-8.533c0-4.71-3.814-8.533-8.533-8.533h-0.085
				c-4.71,0-8.491,3.823-8.491,8.533C247.68,209.51,251.546,213.333,256.256,213.333z"/>
			<path d="M290.108,502.758c-8.405-100.864-8.508-228.42-8.508-229.692c0-4.71-3.823-8.533-8.533-8.533
				c-4.71,0-8.533,3.823-8.533,8.533c0,1.246,0.094,121.924,7.825,221.867H239.65c7.723-99.942,7.817-220.621,7.817-221.867
				c0-4.71-3.823-8.533-8.533-8.533s-8.533,3.823-8.533,8.533c0,1.237-0.094,122.342-7.876,221.867h-60.39
				c-4.71,0-8.533,3.823-8.533,8.533s3.823,8.533,8.533,8.533H281.6c0.239,0,0.469-0.008,0.708-0.026
				c0.469-0.043,0.853-0.273,1.289-0.375c0.563-0.145,1.118-0.23,1.63-0.478c0.495-0.23,0.905-0.58,1.348-0.905
				c0.435-0.324,0.887-0.606,1.263-1.015c0.367-0.401,0.614-0.879,0.905-1.34c0.29-0.469,0.597-0.896,0.794-1.417
				c0.196-0.529,0.239-1.092,0.333-1.664c0.077-0.444,0.265-0.845,0.265-1.314c0-0.128-0.068-0.23-0.068-0.35
				C290.057,502.989,290.116,502.886,290.108,502.758z"/>
		</g>
	</g>
</g>
<g>
</g>
<g>
</g>
<g>
</g>
<g>
</g>
<g>
</g>
<g>
</g>
<g>
</g>
<g>
</g>
<g>
</g>
<g>
</g>
<g>
</g>
<g>
</g>
<g>
</g>
<g>
</g>
<g>
</g>
</svg>
