<?xml version="1.0" standalone="no"?>
<!DOCTYPE svg PUBLIC "-//W3C//DTD SVG 20010904//EN"
 "http://www.w3.org/TR/2001/REC-SVG-20010904/DTD/svg10.dtd">
<svg version="1.0" xmlns="http://www.w3.org/2000/svg"
 width="200.000000pt" height="200.000000pt" viewBox="0 0 200.000000 200.000000"
 preserveAspectRatio="xMidYMid meet">

<g transform="translate(0.000000,200.000000) scale(0.100000,-0.100000)"
fill="#000000" stroke="none">
<path d="M868 1420 c-63 -43 -118 -73 -140 -76 -21 -4 -38 -12 -38 -18 0 -13
151 -83 249 -118 70 -24 156 -26 198 -5 31 17 63 76 63 119 0 39 -42 109 -83
139 -32 23 -50 29 -93 29 -49 0 -61 -5 -156 -70z m244 4 c16 -16 34 -37 39
-47 9 -16 6 -17 -43 -11 -29 4 -57 10 -63 14 -5 4 -25 12 -42 18 -41 14 -45
-4 -5 -19 24 -9 25 -11 9 -20 -12 -7 -29 -7 -52 1 -42 14 -72 7 -35 -8 30 -12
16 -20 -45 -25 -32 -2 -36 -5 -21 -12 11 -5 40 -4 70 2 57 12 70 8 42 -13 -11
-7 -17 -16 -14 -19 10 -10 35 6 48 30 12 23 37 35 72 35 16 0 15 -3 -3 -35
-12 -19 -25 -35 -30 -35 -5 0 -9 -4 -9 -10 0 -22 22 -8 51 34 32 44 54 51 79
21 15 -18 -11 -79 -38 -94 -50 -27 -190 2 -310 63 -46 23 -46 23 -21 36 13 7
54 34 90 61 83 61 104 70 157 65 31 -3 52 -12 74 -32z"/>
<path d="M270 1045 l0 -95 70 0 c63 0 70 2 70 20 0 17 -7 20 -45 20 -33 0 -45
4 -45 15 0 10 11 15 35 15 28 0 35 4 35 19 0 15 -8 21 -32 23 -52 5 -47 28 7
28 42 0 46 2 43 23 -3 20 -9 22 -70 25 l-68 3 0 -96z"/>
<path d="M450 1045 c0 -95 0 -95 25 -95 23 0 25 4 25 45 0 25 2 45 5 45 12 0
54 -56 55 -72 0 -12 8 -18 25 -18 25 0 25 0 25 95 0 95 0 95 -25 95 -22 0 -25
-4 -25 -35 0 -19 -2 -35 -5 -35 -3 0 -19 16 -36 35 -17 19 -40 35 -50 35 -17
0 -19 -8 -19 -95z"/>
<path d="M657 1133 c-4 -3 -7 -46 -7 -95 l0 -88 70 0 c63 0 70 2 70 20 0 17
-7 20 -40 20 -29 0 -40 4 -40 15 0 10 10 15 30 15 23 0 30 4 30 20 0 16 -7 20
-30 20 -20 0 -30 5 -30 15 0 11 11 15 40 15 36 0 40 3 40 25 0 24 -2 25 -63
25 -35 0 -67 -3 -70 -7z"/>
<path d="M837 1133 c-4 -3 -7 -46 -7 -95 l0 -88 30 0 c27 0 30 3 30 30 0 25 4
30 25 30 21 0 25 -5 25 -30 0 -27 3 -30 30 -30 28 0 30 2 30 40 0 26 -5 43
-14 46 -10 4 -12 16 -9 44 5 36 3 40 -21 50 -31 11 -109 14 -119 3z m91 -60
c-5 -26 -38 -29 -38 -4 0 15 6 21 21 21 14 0 19 -5 17 -17z"/>
<path d="M1075 1133 c-32 -8 -45 -33 -45 -91 0 -84 8 -92 90 -92 l70 0 0 45
c0 43 -1 45 -30 45 -25 0 -30 -4 -30 -25 0 -18 -5 -25 -20 -25 -17 0 -20 7
-20 50 l0 50 40 0 c36 0 40 3 40 25 0 22 -4 25 -37 24 -21 -1 -47 -3 -58 -6z"/>
<path d="M1215 1129 c-12 -18 5 -81 31 -114 13 -18 24 -39 24 -48 0 -11 8 -17
25 -17 16 0 25 6 25 16 0 9 14 35 31 59 23 31 30 51 27 76 -2 29 -7 34 -28 34
-22 0 -25 -5 -28 -38 -6 -68 -52 -59 -52 11 0 27 -4 32 -24 32 -14 0 -28 -5
-31 -11z"/>
<path d="M1470 1091 c0 -28 -3 -31 -30 -31 -23 0 -30 -4 -30 -20 0 -16 7 -20
30 -20 27 0 30 -3 30 -31 0 -26 3 -30 23 -27 16 2 23 11 25 31 3 21 9 27 28
27 17 0 24 5 24 20 0 15 -7 20 -24 20 -19 0 -25 6 -28 28 -2 19 -9 28 -25 30
-20 3 -23 -1 -23 -27z"/>
<path d="M1670 1090 c0 -25 -4 -30 -25 -30 -18 0 -25 -5 -25 -20 0 -15 7 -20
25 -20 21 0 25 -5 25 -30 0 -25 4 -30 25 -30 21 0 25 5 25 30 0 25 4 30 25 30
18 0 25 5 25 20 0 15 -7 20 -25 20 -21 0 -25 5 -25 30 0 25 -4 30 -25 30 -21
0 -25 -5 -25 -30z"/>
</g>
</svg>
